<?xml version="1.0" encoding="utf-8" ?>
<svg baseProfile="full" height="200mm" version="1.1" viewBox="0,0,200,200" width="200mm" xmlns="http://www.w3.org/2000/svg" xmlns:ev="http://www.w3.org/2001/xml-events" xmlns:xlink="http://www.w3.org/1999/xlink"><defs /><rect fill="#1a1a1a" height="200" width="200" x="0" y="0" /><text alignment-baseline="middle" fill="#e1ed5e" style="dominant-baseline: central; font-size:9.0px; font-family:Arial;" text-anchor="middle" x="100.0" y="100.0">2024</text><line stroke="#e1ed5e" stroke-width="0.3" x1="100.0" x2="100.0" y1="15.0" y2="10.0" /><path d="M 100.0 14.0 a86.0,86.0 0 0,1 42.35913384403234,11.155469271406648" fill="none" id="id1" stroke="none" /><text fill="#e1ed5e" style="font-size:6.75px; font-family:Arial;" text-anchor="middle"><textPath startOffset="22.145653131862478" xlink:href="#id1">January</textPath></text><line stroke="#e1ed5e" stroke-width="0.3" x1="143.13028292997686" x2="145.6673583964461" y1="26.7553504044142" y2="22.446841604673864" /><path d="M 143.63769802327073 25.89364864446614 a86.0,86.0 0 0,1 29.32050498858742,28.57503671076993" fill="none" id="id2" stroke="none" /><text fill="#e1ed5e" style="font-size:6.75px; font-family:Arial;" text-anchor="middle"><textPath startOffset="20.669276256404974" xlink:href="#id2">February</textPath></text><path d="M 114.13192950727249 84.46653392183569 l 26.232410000955444 -28.83401383290543 a59.98127355762519,59.98127355762519 0 0,0 0.7556790124771678,0.699445212316278 l -26.723518784746574 28.379450874456776" fill="#ff0000" stroke="none" /><path d="M 114.39649973595853 84.71141617570332 l 34.51766309865014 -36.656562038092424 a71.35049757692998,71.35049757692998 0 0,0 0.884499888879774,0.8473308853498778 l -35.141835473395226 36.058619022436964" fill="#89ff24" stroke="none" /><path d="M 114.65682725009322 84.96080404539774 l 27.501390994800268 -28.21884990097736 a60.403426201064946,60.403426201064946 0 0,0 0.736369769490769,0.73007604859563 l -27.981752684421 27.742593842153074" fill="#ff1001" stroke="none" /><path d="M 114.91283532996326 85.21462403516908 l 35.77706462893304 -35.471279589200186 a71.38065133717568,71.38065133717568 0 0,0 0.8552530485183503,0.8775649714611023 l -36.3807044786022 34.851891925671346" fill="#88ff25" stroke="none" /><path d="M 115.16444852881244 85.47280134310134 l 36.624760677129444 -35.08569224308589 a71.71862473326287,71.71862473326287 0 0,0 0.8440399864421094,0.8963412162990866 l -37.22165649730781 34.45180956684231" fill="#7fff26" stroke="none" /><path d="M 115.6541949942343 86.00192230759917 l 29.12274056273352 -26.041734190926174 a60.06796561833157,60.06796561833157 0 0,0 0.6807386298894627,0.7745555993474896 l -29.565490256581572 25.537966313767388" fill="#ff0300" stroke="none" /><path d="M 115.8921839302757 86.27271002978787 l 29.563588633152946 -25.53632373674126 a60.06545280497777,60.06545280497777 0 0,0 0.6673141278480138,0.7860943646674581 l -29.997597324508074 25.02506258962425" fill="#ff0300" stroke="none" /><path d="M 116.57777611688842 87.10902102172516 l 39.74758458115608 -30.90796218142301 a71.35049757692998,71.35049757692998 0 0,0 0.743567395690355,0.9733535897927412 l -40.272303954200744 30.221087678389388" fill="#89ff24" stroke="none" /><path d="M 116.7966241395341 87.39550010848427 l 40.97072569464165 -30.745196372999008 a72.2237002173783,72.2237002173783 0 0,0 0.7356430292704963,0.9980410535399696 l -41.49247074349597 30.037349010190162" fill="#71ff27" stroke="none" /><path d="M 117.01052211995028 87.68569379921539 l 40.78820805636086 -29.52751713589408 a71.3542667969607,71.3542667969607 0 0,0 0.7097537613976208,0.9983575503044262 l -41.28907691628844 28.82298235888015" fill="#89ff24" stroke="none" /><path d="M 117.62189284568427 88.57770195909679 l 42.287903917220504 -27.410508411181702 a71.39447181062161,71.39447181062161 0 0,0 0.6577889148128285,1.0341534299204824 l -42.75221052365922 26.680541306582548" fill="#88ff25" stroke="none" /><line stroke="#e1ed5e" stroke-width="0.3" x1="172.87174338648825" x2="177.1583165268699" y1="56.24261187166439" y2="53.66864786411523" /><path d="M 173.72905801456457 55.72781907015455 a86.0,86.0 0 0,1 12.242430191666344,42.057860355516425" fill="none" id="id3" stroke="none" /><text fill="#e1ed5e" style="font-size:6.75px; font-family:Arial;" text-anchor="middle"><textPath startOffset="22.145653131862474" xlink:href="#id3">March</textPath></text><path d="M 118.00360718960297 89.18935116829356 l 33.54631806910208 -20.143600136489574 a60.12952954549987,60.12952954549987 0 0,0 0.5237748453048003,0.8894841954460768 l -33.88716662453665 19.56476477274994" fill="#ff0600" stroke="none" /><path d="M 118.18653347947321 89.5 l 44.60149136611808 -25.750683046487055 a72.5013660929741,72.5013660929741 0 0,0 0.613039219451558,1.0831815604874275 l -45.03696395059102 24.98124471590051" fill="#6aff28" stroke="none" /><path d="M 118.36410011445183 89.81374322990088 l 55.026378120500844 -30.5222043645299 a83.92461559938576,83.92461559938576 0 0,0 0.6880006122466252,1.2658436354098737 l -55.54222408236281 29.573105895645423" fill="#4dd4ff" stroke="none" /><path d="M 118.8641267826498 90.77261029715802 l 35.22535115648943 -17.230484415495727 a60.21370879285244,60.21370879285244 0 0,0 0.446214383015689,0.9324164430346743 l -35.51594479746503 16.62325547039595" fill="#ff0901" stroke="none" /><path d="M 119.0197475246899 91.09779779509293 l 35.42035864633283 -16.57851632523837 a60.10817063199249,60.10817063199249 0 0,0 0.42938854209248745,0.9382914567660423 l -35.69973165328037 15.968035886257642" fill="#ff0500" stroke="none" /><path d="M 119.16976305983485 91.42560881287824 l 46.205387255941986 -20.667082010783613 a71.61685579243363,71.61685579243363 0 0,0 0.4923355929954331,1.1265601862682857 l -46.55335673095439 19.870859754739477" fill="#82ff25" stroke="none" /><path d="M 119.31412917781788 91.75594674310238 l 46.30260392209256 -19.763828291320056 a71.34421554354546,71.34421554354546 0 0,0 0.47112375417658453,1.1305255034431525 l -46.63505352080563 18.966070278435627" fill="#89ff24" stroke="none" /><path d="M 119.4528033332814 92.08871423366111 l 58.358409999844184 -23.733857299016663 a84.0,84.0 0 0,0 0.5317653001355023,1.3403959311457387 l -58.75723397494581 22.728560350657357" fill="#4dd2ff" stroke="none" /><path d="M 119.71291397450082 92.76114493625339 l 36.66995919441475 -13.465716948049153 a60.06419639830085,60.06419639830085 0 0,0 0.34711336482595184,0.9709378595378275 l -36.89571272928465 12.834244132130408" fill="#ff0300" stroke="none" /><path d="M 119.83427380445688 93.10060997987247 l 36.818579662019644 -12.807413247382291 a59.98252996430209,59.98252996430209 0 0,0 0.3299455553261591,0.9754254068386947 l -37.03301063891817 12.173486166069434" fill="#ff0000" stroke="none" /><line stroke="#e1ed5e" stroke-width="0.3" x1="184.99686870605535" x2="189.99668451229388" y1="99.2704041080226" y2="99.22748670261217" /><path d="M 185.99683186730306 99.26182062694052 a86.0,86.0 0 0,1 -10.086455211305974,41.156179273409016" fill="none" id="id4" stroke="none" /><text fill="#e1ed5e" style="font-size:6.75px; font-family:Arial;" text-anchor="middle"><textPath startOffset="21.40746469413373" xlink:href="#id4">April</textPath></text><line stroke="#e1ed5e" stroke-width="0.3" x1="174.33088141563837" x2="178.70328620479359" y1="141.23008692659167" y2="143.65538615756765" /><path d="M 175.20536237346943 141.71514677278685 a86.0,86.0 0 0,1 -30.301960400862466,31.631185727798858" fill="none" id="id5" stroke="none" /><text fill="#e1ed5e" style="font-size:6.75px; font-family:Arial;" text-anchor="middle"><textPath startOffset="22.145653131862474" xlink:href="#id5">May</textPath></text><line stroke="#e1ed5e" stroke-width="0.3" x1="143.1302829299769" x2="145.66735839644613" y1="173.24464959558577" y2="177.55315839532614" /><path d="M 143.63769802327073 174.10635135553383 a86.0,86.0 0 0,1 -40.68552437913181,11.842963189579606" fill="none" id="id6" stroke="none" /><text fill="#e1ed5e" style="font-size:6.75px; font-family:Arial;" text-anchor="middle"><textPath startOffset="21.407464694133747" xlink:href="#id6">June</textPath></text><line stroke="#e1ed5e" stroke-width="0.3" x1="101.45913802915013" x2="101.54496967792366" y1="184.9874750549273" y2="189.98673829345242" /><path d="M 101.47630435890484 185.9873277026323 a86.0,86.0 0 0,1 -42.54439059252881,-10.42667462771756" fill="none" id="id7" stroke="none" /><text fill="#e1ed5e" style="font-size:6.75px; font-family:Arial;" text-anchor="middle"><textPath startOffset="22.145653131862474" xlink:href="#id7">July</textPath></text><line stroke="#e1ed5e" stroke-width="0.3" x1="58.13341422392154" x2="55.67067388415222" y1="173.97424548756322" y2="178.32567169271397" /><path d="M 57.64086615596768 174.84453072859336 a86.0,86.0 0 0,1 -31.369924170532247,-30.572349798747897" fill="none" id="id8" stroke="none" /><text fill="#e1ed5e" style="font-size:6.75px; font-family:Arial;" text-anchor="middle"><textPath startOffset="22.145653131862474" xlink:href="#id8">August</textPath></text><line stroke="#e1ed5e" stroke-width="0.3" x1="26.387840678322732" x2="22.057713659400548" y1="142.50000000000003" y2="145.00000000000006" /><path d="M 25.521815274538298 143.00000000000003 a86.0,86.0 0 0,1 -11.493303480769221,-40.785679425670985" fill="none" id="id9" stroke="none" /><text fill="#e1ed5e" style="font-size:6.75px; font-family:Arial;" text-anchor="middle"><textPath startOffset="21.40746469413373" xlink:href="#id9">September</textPath></text><line stroke="#e1ed5e" stroke-width="0.3" x1="15.003131293944662" x2="10.003315487706104" y1="100.72959589197737" y2="100.7725132973878" /><path d="M 14.003168132696942 100.73817937305945 a86.0,86.0 0 0,1 10.791469493833604,-42.45332614584628" fill="none" id="id10" stroke="none" /><text fill="#e1ed5e" style="font-size:6.75px; font-family:Arial;" text-anchor="middle"><textPath startOffset="22.145653131862435" xlink:href="#id10">October</textPath></text><line stroke="#e1ed5e" stroke-width="0.3" x1="26.387840678322718" x2="22.05771365940052" y1="57.49999999999999" y2="54.99999999999999" /><path d="M 25.521815274538284 56.99999999999999 a86.0,86.0 0 0,1 29.574782752854787,-30.34633250058573" fill="none" id="id11" stroke="none" /><text fill="#e1ed5e" style="font-size:6.75px; font-family:Arial;" text-anchor="middle"><textPath startOffset="21.40746469413373" xlink:href="#id11">November</textPath></text><line stroke="#e1ed5e" stroke-width="0.3" x1="56.869717070023135" x2="54.33264160355391" y1="26.7553504044142" y2="22.446841604673864" /><path d="M 56.362301976729285 25.89364864446614 a86.0,86.0 0 0,1 42.16139366436587,-11.88097634709845" fill="none" id="id12" stroke="none" /><text fill="#e1ed5e" style="font-size:6.75px; font-family:Arial;" text-anchor="middle"><textPath startOffset="22.145653131862474" xlink:href="#id12">December</textPath></text></svg>
